<svg width="24" height="24" viewBox="0 0 24 24" fill="none" xmlns="http://www.w3.org/2000/svg">
<g clip-path="url(#clip0_363_14573)">
<path d="M1.20081 6.15012C1.20081 4.82464 2.27532 3.75012 3.60081 3.75012H20.4008C21.7263 3.75012 22.8008 4.82464 22.8008 6.15012V10.5001V21.6001C22.8008 22.9256 21.7263 24.0001 20.4008 24.0001H3.60081C2.27532 24.0001 1.20081 22.9256 1.20081 21.6001V10.5001V6.15012Z" fill="#3C434F"/>
<path d="M1.20081 10.5001V21.6001C1.20081 22.9256 2.27532 24.0001 3.60081 24.0001H20.4008C21.7263 24.0001 22.8008 22.9256 22.8008 21.6001V10.5001M1.20081 10.5001V6.15012C1.20081 4.82464 2.27532 3.75012 3.60081 3.75012H20.4008C21.7263 3.75012 22.8008 4.82464 22.8008 6.15012V10.5001M1.20081 10.5001H22.8008" stroke="white" stroke-width="0.96"/>
<path d="M6.6008 2.40015V6.45015" stroke="#3C434F" stroke-width="1.2" stroke-linecap="round"/>
<path d="M17.4008 2.40015V6.45015" stroke="#3C434F" stroke-width="1.2" stroke-linecap="round"/>
</g>
<defs>
<clipPath id="clip0_363_14573">
<rect width="24" height="24" fill="white"/>
</clipPath>
</defs>
</svg>
