<svg width="24" height="24" viewBox="0 0 24 24" fill="none" xmlns="http://www.w3.org/2000/svg">
<path d="M6.40112 10.7992C6.40112 8.15975 6.40112 6.83909 7.22152 6.01962C8.04099 5.19922 9.36166 5.19922 12.0011 5.19922H14.8011C17.4406 5.19922 18.7613 5.19922 19.5807 6.01962C20.4011 6.83909 20.4011 8.15975 20.4011 10.7992V15.4659C20.4011 18.1054 20.4011 19.426 19.5807 20.2455C18.7613 21.0659 17.4406 21.0659 14.8011 21.0659H12.0011C9.36166 21.0659 8.04099 21.0659 7.22152 20.2455C6.40112 19.426 6.40112 18.1054 6.40112 15.4659V10.7992Z" stroke="#6C7582" stroke-width="0.933333"/>
<path d="M6.40034 18.2661C5.65774 18.2661 4.94554 17.9711 4.42044 17.446C3.89534 16.9209 3.60034 16.2087 3.60034 15.4661V9.86608C3.60034 6.34648 3.60034 4.58621 4.69421 3.49328C5.78808 2.40035 7.54741 2.39941 11.067 2.39941H14.8003C15.5429 2.39941 16.2551 2.69441 16.7802 3.21952C17.3053 3.74462 17.6003 4.45681 17.6003 5.19941" stroke="#6C7582" stroke-width="0.933333"/>
</svg>
