<svg width="76" height="13" viewBox="0 0 76 13" fill="none" xmlns="http://www.w3.org/2000/svg">
<path opacity="0.35" d="M52.0017 0.519531H69.0017C70.9195 0.519531 72.4744 2.0744 72.4744 3.99219V8.99219C72.4744 10.91 70.9195 12.4648 69.0017 12.4648H52.0017C50.0839 12.4648 48.5291 10.91 48.5291 8.99219V3.99219C48.5291 2.0744 50.0839 0.519531 52.0017 0.519531Z" stroke="white" stroke-width="1.05509"/>
<path opacity="0.4" d="M74.0021 4.99316V9.21355C74.8511 8.8561 75.4033 8.02459 75.4033 7.10336C75.4033 6.18212 74.8511 5.35061 74.0021 4.99316Z" fill="white"/>
<path d="M50.0009 3.99463C50.0009 2.89006 50.8963 1.99463 52.0009 1.99463H69.001C70.1056 1.99463 71.001 2.89006 71.001 3.99463V8.99471C71.001 10.0993 70.1056 10.9947 69.001 10.9947H52.0009C50.8963 10.9947 50.0009 10.0993 50.0009 8.99471V3.99463Z" fill="white"/>
<path d="M31.1167 9.08203C32.5366 7.85628 34.6158 7.85621 36.0356 9.08203C36.107 9.14789 36.1488 9.24073 36.1509 9.33887C36.1528 9.43716 36.1151 9.5327 36.0464 9.60156L33.8228 11.8916C33.7576 11.9588 33.6683 11.9971 33.5757 11.9971C33.4832 11.997 33.3947 11.9587 33.3296 11.8916L31.106 9.60156C31.0373 9.53265 30.9994 9.43716 31.0015 9.33887C31.0036 9.24068 31.0453 9.14785 31.1167 9.08203ZM28.1128 6.25977C31.1719 3.35534 35.9092 3.35521 38.9683 6.25977C39.0372 6.32787 39.0767 6.42158 39.0776 6.51953C39.0786 6.6175 39.0408 6.71175 38.9731 6.78125L37.688 8.10645C37.5555 8.24181 37.3414 8.24506 37.2056 8.11328C36.201 7.18476 34.8938 6.67081 33.5386 6.6709C32.1844 6.67156 30.8783 7.18544 29.8745 8.11328C29.7386 8.2449 29.5245 8.24175 29.3921 8.10645L28.1079 6.78125C28.0401 6.71183 28.0025 6.61756 28.0034 6.51953C28.0043 6.42148 28.0437 6.32788 28.1128 6.25977ZM25.1099 3.44043C29.8018 -1.14939 37.204 -1.14939 41.896 3.44043C41.9639 3.50861 42.0019 3.60201 42.0024 3.69922C42.0029 3.79618 41.9658 3.88914 41.8989 3.95801L40.6118 5.28418C40.4792 5.42 40.2639 5.42195 40.1294 5.28809C38.3418 3.55338 35.9699 2.58608 33.5034 2.58594C31.0366 2.58593 28.6643 3.55324 26.8765 5.28809C26.742 5.42215 26.5266 5.4202 26.394 5.28418L25.1069 3.95801C25.0399 3.88897 25.0018 3.79545 25.0024 3.69824C25.0032 3.6012 25.042 3.50845 25.1099 3.44043Z" fill="white"/>
<path d="M10.0001 2.99221C10.0001 2.43992 10.4478 1.99221 11.0001 1.99221H12.0001C12.5524 1.99221 13.0001 2.43992 13.0001 2.99221V10.9923C13.0001 11.5446 12.5524 11.9923 12.0001 11.9923H11.0001C10.4478 11.9923 10.0001 11.5446 10.0001 10.9923V2.99221Z" fill="white"/>
<path d="M15.0001 0.992196C15.0001 0.439907 15.4479 -0.0078125 16.0001 -0.0078125H17.0002C17.5524 -0.0078125 18.0002 0.439907 18.0002 0.992196V10.9923C18.0002 11.5446 17.5524 11.9923 17.0002 11.9923H16.0001C15.4479 11.9923 15.0001 11.5446 15.0001 10.9923V0.992196Z" fill="white"/>
<path d="M5.00005 6.49225C5.00005 5.93996 5.44776 5.49224 6.00005 5.49224H7.00006C7.55235 5.49224 8.00007 5.93996 8.00007 6.49225V10.9923C8.00007 11.5446 7.55235 11.9923 7.00006 11.9923H6.00005C5.44776 11.9923 5.00005 11.5446 5.00005 10.9923V6.49225Z" fill="white"/>
<path d="M0 8.99227C0 8.43998 0.447719 7.99226 1.00001 7.99226H2.00002C2.55231 7.99226 3.00003 8.43998 3.00003 8.99227V10.9923C3.00003 11.5446 2.55231 11.9923 2.00002 11.9923H1.00001C0.447719 11.9923 0 11.5446 0 10.9923V8.99227Z" fill="white"/>
</svg>
