<svg width="18" height="20" viewBox="0 0 18 20" fill="none" xmlns="http://www.w3.org/2000/svg">
<path fill-rule="evenodd" clip-rule="evenodd" d="M9.00002 0.834839C7.45293 0.834839 5.9692 1.44942 4.87524 2.54338C3.78127 3.63734 3.16669 5.12108 3.16669 6.66817C3.16669 9.46205 2.56913 11.197 2.01844 12.2066C1.74195 12.7135 1.47271 13.0461 1.28569 13.2435C1.19196 13.3424 1.11831 13.408 1.07396 13.445C1.05177 13.4635 1.0369 13.4748 1.03048 13.4796L1.0281 13.4813C0.729361 13.6866 0.597162 14.0619 0.702447 14.4097C0.808863 14.7611 1.1328 15.0015 1.50002 15.0015H16.5C16.8672 15.0015 17.1912 14.7611 17.2976 14.4097C17.4029 14.0619 17.2707 13.6866 16.9719 13.4813L16.9696 13.4796C16.9632 13.4748 16.9483 13.4635 16.9261 13.445C16.8817 13.408 16.8081 13.3424 16.7144 13.2435C16.5273 13.0461 16.2581 12.7135 15.9816 12.2066C15.4309 11.197 14.8334 9.46205 14.8334 6.66817C14.8334 5.12108 14.2188 3.63734 13.1248 2.54338C12.0309 1.44942 10.5471 0.834839 9.00002 0.834839ZM14.5184 13.0047C14.5819 13.121 14.6455 13.2309 14.7089 13.3348H3.29113C3.35453 13.2309 3.41819 13.121 3.4816 13.0047C4.18091 11.7226 4.83336 9.70762 4.83336 6.66817C4.83336 5.5631 5.27234 4.5033 6.05375 3.72189C6.83515 2.94049 7.89496 2.50151 9.00002 2.50151C10.1051 2.50151 11.1649 2.94049 11.9463 3.72189C12.7277 4.5033 13.1667 5.5631 13.1667 6.66817C13.1667 9.70762 13.8191 11.7226 14.5184 13.0047Z" fill="#2D3648"/>
<path d="M8.27921 17.0834C8.04827 16.6853 7.53834 16.5497 7.14023 16.7807C6.74213 17.0116 6.60661 17.5215 6.83754 17.9196C7.0573 18.2985 7.37274 18.613 7.75226 18.8316C8.13178 19.0502 8.56207 19.1652 9.00004 19.1652C9.43801 19.1652 9.8683 19.0502 10.2478 18.8316C10.6273 18.613 10.9428 18.2985 11.1625 17.9196C11.3935 17.5215 11.258 17.0116 10.8599 16.7807C10.4617 16.5497 9.95181 16.6853 9.72087 17.0834C9.64762 17.2096 9.54247 17.3145 9.41597 17.3873C9.28946 17.4602 9.14603 17.4986 9.00004 17.4986C8.85405 17.4986 8.71062 17.4602 8.58411 17.3873C8.45761 17.3145 8.35246 17.2096 8.27921 17.0834Z" fill="#2D3648"/>
</svg>
