<svg width="16" height="17" viewBox="0 0 16 17" fill="none" xmlns="http://www.w3.org/2000/svg">
<path fill-rule="evenodd" clip-rule="evenodd" d="M12.6665 1.28101C12.3313 1.28101 11.9995 1.34702 11.6898 1.47529C11.3801 1.60355 11.0988 1.79155 10.8618 2.02855L1.86178 11.0286C1.77974 11.1106 1.72054 11.2126 1.69001 11.3245L0.69001 14.9912C0.627063 15.222 0.692615 15.4689 0.861781 15.638C1.03095 15.8072 1.27779 15.8727 1.5086 15.8098L5.17526 14.8098C5.28719 14.7793 5.38922 14.7201 5.47126 14.638L14.4713 5.63803C14.7083 5.40103 14.8963 5.11967 15.0245 4.81001C15.1528 4.50035 15.2188 4.16846 15.2188 3.83329C15.2188 3.49812 15.1528 3.16623 15.0245 2.85657C14.8963 2.54692 14.7083 2.26555 14.4713 2.02855C14.2343 1.79155 13.9529 1.60355 13.6432 1.47529C13.3336 1.34702 13.0017 1.28101 12.6665 1.28101ZM12.2 2.70713C12.3479 2.64587 12.5064 2.61434 12.6665 2.61434C12.8266 2.61434 12.9851 2.64587 13.133 2.70713C13.2809 2.76838 13.4153 2.85817 13.5284 2.97136C13.6416 3.08455 13.7314 3.21893 13.7927 3.36682C13.8539 3.51471 13.8855 3.67321 13.8855 3.83329C13.8855 3.99337 13.8539 4.15188 13.7927 4.29976C13.7314 4.44765 13.6416 4.58203 13.5284 4.69522L4.65364 13.57L2.28333 14.2165L2.92978 11.8462L11.8046 2.97136C11.9178 2.85817 12.0522 2.76838 12.2 2.70713Z" fill="#6B6B6B"/>
</svg>
