<svg width="18" height="12" viewBox="0 0 18 12" fill="none" xmlns="http://www.w3.org/2000/svg">
<path d="M0.666748 0.999959C0.666748 0.539722 1.03984 0.166626 1.50008 0.166626H16.5001C16.9603 0.166626 17.3334 0.539722 17.3334 0.999959C17.3334 1.4602 16.9603 1.83329 16.5001 1.83329H1.50008C1.03984 1.83329 0.666748 1.4602 0.666748 0.999959Z" fill="#2D3648"/>
<path d="M0.666748 5.99996C0.666748 5.53972 1.03984 5.16663 1.50008 5.16663H16.5001C16.9603 5.16663 17.3334 5.53972 17.3334 5.99996C17.3334 6.4602 16.9603 6.83329 16.5001 6.83329H1.50008C1.03984 6.83329 0.666748 6.4602 0.666748 5.99996Z" fill="#2D3648"/>
<path d="M1.50008 10.1666C1.03984 10.1666 0.666748 10.5397 0.666748 11C0.666748 11.4602 1.03984 11.8333 1.50008 11.8333H16.5001C16.9603 11.8333 17.3334 11.4602 17.3334 11C17.3334 10.5397 16.9603 10.1666 16.5001 10.1666H1.50008Z" fill="#2D3648"/>
</svg>
