<svg width="16" height="16" viewBox="0 0 16 16" fill="none" xmlns="http://www.w3.org/2000/svg">
<g clip-path="url(#clip0_721_8835)">
<path fill-rule="evenodd" clip-rule="evenodd" d="M12.6667 0.781006C12.3315 0.781006 11.9996 0.847023 11.69 0.975287C11.3803 1.10355 11.0989 1.29155 10.8619 1.52855L1.86193 10.5286C1.7799 10.6106 1.72069 10.7126 1.69016 10.8245L0.690163 14.4912C0.627215 14.722 0.692767 14.9689 0.861934 15.138C1.0311 15.3072 1.27794 15.3727 1.50875 15.3098L5.17542 14.3098C5.28735 14.2793 5.38937 14.2201 5.47141 14.138L14.4714 5.13803C14.7084 4.90103 14.8964 4.61967 15.0247 4.31001C15.1529 4.00035 15.219 3.66846 15.219 3.33329C15.219 2.99812 15.1529 2.66623 15.0247 2.35657C14.8964 2.04692 14.7084 1.76555 14.4714 1.52855C14.2344 1.29155 13.953 1.10355 13.6434 0.975287C13.3337 0.847023 13.0018 0.781006 12.6667 0.781006ZM12.2002 2.20713C12.3481 2.14587 12.5066 2.11434 12.6667 2.11434C12.8267 2.11434 12.9853 2.14587 13.1331 2.20713C13.281 2.26838 13.4154 2.35817 13.5286 2.47136C13.6418 2.58455 13.7316 2.71893 13.7928 2.86682C13.8541 3.01471 13.8856 3.17321 13.8856 3.33329C13.8856 3.49337 13.8541 3.65188 13.7928 3.79976C13.7316 3.94765 13.6418 4.08203 13.5286 4.19522L4.65379 13.07L2.28348 13.7165L2.92993 11.3462L11.8047 2.47136C11.9179 2.35817 12.0523 2.26838 12.2002 2.20713Z" fill="#6B6B6B"/>
</g>
<defs>
<clipPath id="clip0_721_8835">
<rect width="16" height="16" fill="white"/>
</clipPath>
</defs>
</svg>
