<svg width="27" height="26" viewBox="0 0 27 26" fill="none" xmlns="http://www.w3.org/2000/svg">
<path d="M11.4688 19.5C11.4688 19.5 12.2812 18.6875 13.5 18.6875C14.7188 18.6875 15.5312 19.5 15.5312 19.5M24.0625 13C24.0625 18.8337 19.3337 23.5625 13.5 23.5625C7.66625 23.5625 2.9375 18.8337 2.9375 13C2.9375 7.16625 7.66625 2.4375 13.5 2.4375C19.3337 2.4375 24.0625 7.16625 24.0625 13ZM19.1875 14.625C19.1875 14.8405 19.1019 15.0472 18.9495 15.1995C18.7972 15.3519 18.5905 15.4375 18.375 15.4375C18.1595 15.4375 17.9528 15.3519 17.8005 15.1995C17.6481 15.0472 17.5625 14.8405 17.5625 14.625C17.5625 14.4095 17.6481 14.2028 17.8005 14.0505C17.9528 13.8981 18.1595 13.8125 18.375 13.8125C18.5905 13.8125 18.7972 13.8981 18.9495 14.0505C19.1019 14.2028 19.1875 14.4095 19.1875 14.625ZM9.4375 14.625C9.4375 14.8405 9.3519 15.0472 9.19952 15.1995C9.04715 15.3519 8.84049 15.4375 8.625 15.4375C8.40951 15.4375 8.20285 15.3519 8.05048 15.1995C7.8981 15.0472 7.8125 14.8405 7.8125 14.625C7.8125 14.4095 7.8981 14.2028 8.05048 14.0505C8.20285 13.8981 8.40951 13.8125 8.625 13.8125C8.84049 13.8125 9.04715 13.8981 9.19952 14.0505C9.3519 14.2028 9.4375 14.4095 9.4375 14.625Z" stroke="#A6AEB6" stroke-linecap="round" stroke-linejoin="round"/>
</svg>
