<svg width="21" height="20" viewBox="0 0 21 20" fill="none" xmlns="http://www.w3.org/2000/svg">
<path d="M3.366 17C2.90533 17 2.521 16.846 2.213 16.538C1.905 16.23 1.75067 15.8453 1.75 15.384V4.616C1.75 4.15533 1.90433 3.771 2.213 3.463C2.52167 3.155 2.90567 3.00067 3.365 3H18.135C18.595 3 18.979 3.15433 19.287 3.463C19.595 3.77167 19.7493 4.156 19.75 4.616V15.385C19.75 15.845 19.5957 16.2293 19.287 16.538C18.9783 16.8467 18.5943 17.0007 18.135 17H3.366ZM18.75 4.885L11.198 9.829C11.1273 9.86567 11.056 9.89667 10.984 9.922C10.9113 9.94667 10.8333 9.959 10.75 9.959C10.6667 9.959 10.5887 9.94667 10.516 9.922C10.4433 9.89733 10.372 9.86633 10.302 9.829L2.75 4.884V15.384C2.75 15.564 2.80767 15.7117 2.923 15.827C3.03833 15.9423 3.186 16 3.366 16H18.135C18.3143 16 18.4617 15.9423 18.577 15.827C18.6923 15.7117 18.75 15.564 18.75 15.384V4.885ZM10.75 9L18.442 4H3.058L10.75 9ZM2.75 5.096V4.285V4.319V4V4.32V4.268V5.096Z" fill="#3C434F"/>
</svg>
