<svg width="16" height="16" viewBox="0 0 16 16" fill="none" xmlns="http://www.w3.org/2000/svg">
<path d="M8 11.7183C8.14556 11.7183 8.2675 11.6692 8.36583 11.5708C8.46361 11.4725 8.5125 11.3506 8.5125 11.205C8.5125 11.06 8.46333 10.9383 8.365 10.84C8.26667 10.7417 8.145 10.6922 8 10.6917C7.855 10.6911 7.73333 10.7403 7.635 10.8392C7.53667 10.9381 7.4875 11.0597 7.4875 11.2042C7.4875 11.3486 7.53667 11.4706 7.635 11.57C7.73333 11.6694 7.855 11.7194 8 11.7183ZM8 8.96083C8.11889 8.96083 8.21806 8.92083 8.2975 8.84083C8.37694 8.76083 8.41667 8.66194 8.41667 8.54417V4.3775C8.41667 4.25917 8.37667 4.16028 8.29667 4.08083C8.21667 4.00139 8.1175 3.96139 7.99917 3.96083C7.88083 3.96028 7.78194 4.00028 7.7025 4.08083C7.62305 4.16139 7.58333 4.26028 7.58333 4.3775V8.54417C7.58333 8.66194 7.62333 8.76083 7.70333 8.84083C7.78333 8.92083 7.8825 8.96083 8.00083 8.96083M8.0025 15.5C6.96528 15.5 5.99028 15.3033 5.0775 14.91C4.16472 14.5161 3.37056 13.9817 2.695 13.3067C2.01944 12.6317 1.48472 11.8383 1.09083 10.9267C0.696945 10.015 0.5 9.04028 0.5 8.0025C0.5 6.96472 0.696945 5.98972 1.09083 5.0775C1.48417 4.16472 2.01778 3.37056 2.69167 2.695C3.36556 2.01944 4.15917 1.48472 5.0725 1.09083C5.98583 0.696945 6.96083 0.5 7.9975 0.5C9.03417 0.5 10.0092 0.696945 10.9225 1.09083C11.8353 1.48417 12.6294 2.01806 13.305 2.6925C13.9806 3.36694 14.5153 4.16056 14.9092 5.07333C15.3031 5.98611 15.5 6.96083 15.5 7.9975C15.5 9.03417 15.3033 10.0092 14.91 10.9225C14.5167 11.8358 13.9822 12.63 13.3067 13.305C12.6311 13.98 11.8378 14.5147 10.9267 14.9092C10.0156 15.3036 9.04083 15.5006 8.0025 15.5ZM8 14.6667C9.86111 14.6667 11.4375 14.0208 12.7292 12.7292C14.0208 11.4375 14.6667 9.86111 14.6667 8C14.6667 6.13889 14.0208 4.5625 12.7292 3.27083C11.4375 1.97917 9.86111 1.33333 8 1.33333C6.13889 1.33333 4.5625 1.97917 3.27083 3.27083C1.97917 4.5625 1.33333 6.13889 1.33333 8C1.33333 9.86111 1.97917 11.4375 3.27083 12.7292C4.5625 14.0208 6.13889 14.6667 8 14.6667Z" fill="#E8C70B"/>
</svg>
