<svg width="16" height="17" viewBox="0 0 16 17" fill="none" xmlns="http://www.w3.org/2000/svg">
<path fill-rule="evenodd" clip-rule="evenodd" d="M12.6666 1.28125C12.3315 1.28125 11.9996 1.34727 11.6899 1.47553C11.3803 1.6038 11.0989 1.7918 10.8619 2.0288L1.8619 11.0288C1.77987 11.1108 1.72066 11.2129 1.69013 11.3248L0.690132 14.9915C0.627185 15.2223 0.692737 15.4691 0.861904 15.6383C1.03107 15.8074 1.27791 15.873 1.50872 15.81L5.17539 14.81C5.28732 14.7795 5.38934 14.7203 5.47138 14.6383L14.4714 5.63827C14.7084 5.40127 14.8964 5.11991 15.0246 4.81025C15.1529 4.50059 15.2189 4.1687 15.2189 3.83353C15.2189 3.49837 15.1529 3.16648 15.0246 2.85682C14.8964 2.54716 14.7084 2.2658 14.4714 2.0288C14.2344 1.7918 13.953 1.6038 13.6434 1.47553C13.3337 1.34727 13.0018 1.28125 12.6666 1.28125ZM12.2002 2.70737C12.3481 2.64611 12.5066 2.61458 12.6666 2.61458C12.8267 2.61458 12.9852 2.64611 13.1331 2.70737C13.281 2.76863 13.4154 2.85842 13.5286 2.97161C13.6418 3.0848 13.7315 3.21917 13.7928 3.36706C13.8541 3.51495 13.8856 3.67346 13.8856 3.83353C13.8856 3.99361 13.8541 4.15212 13.7928 4.30001C13.7315 4.4479 13.6418 4.58227 13.5286 4.69546L4.65376 13.5703L2.28345 14.2167L2.9299 11.8464L11.8047 2.97161C11.9179 2.85842 12.0523 2.76863 12.2002 2.70737Z" fill="#6B6B6B"/>
</svg>
